<?xml version="1.0" standalone="no"?>
<!DOCTYPE svg PUBLIC "-//W3C//DTD SVG 20010904//EN"
 "http://www.w3.org/TR/2001/REC-SVG-20010904/DTD/svg10.dtd">
<svg version="1.0" xmlns="http://www.w3.org/2000/svg"
 width="900.000000pt" height="900.000000pt" viewBox="0 0 900.000000 900.000000"
 preserveAspectRatio="xMidYMid meet">

<g transform="translate(0.000000,900.000000) scale(0.100000,-0.100000)"
fill="#000000" stroke="none">
<path d="M0 4500 l0 -4500 4500 0 4500 0 0 4500 0 4500 -4500 0 -4500 0 0
-4500z m4388 2620 c106 -50 217 -133 274 -205 33 -42 23 -36 -50 27 -42 36
-228 138 -252 138 -15 0 -7 -27 36 -119 39 -83 43 -132 15 -176 -11 -16 -58
-70 -104 -119 -77 -80 -107 -98 -107 -63 0 9 2 9 8 0 6 -9 11 -6 21 8 10 17
10 20 -1 13 -20 -13 -45 -12 -45 2 0 7 6 10 14 7 7 -3 13 0 13 7 0 6 4 9 9 5
5 -3 13 0 17 6 4 8 3 9 -4 5 -11 -7 -17 6 -13 27 1 5 -3 6 -8 2 -6 -3 -8 -12
-4 -20 3 -8 1 -15 -5 -15 -6 0 -9 7 -8 15 3 22 47 65 59 58 6 -3 7 -2 4 4 -3
5 16 32 43 58 28 27 50 58 50 69 0 11 -12 54 -26 95 -15 42 -29 104 -32 139
-6 75 1 77 96 32z m1064 -234 c240 -38 465 -117 638 -223 469 -289 723 -760
780 -1447 17 -208 -10 -450 -79 -691 -11 -38 -19 -70 -18 -71 1 -1 43 -29 94
-63 50 -34 112 -84 137 -112 72 -80 128 -213 142 -340 l7 -60 -33 3 c-31 3
-33 5 -51 76 -40 157 -119 262 -261 346 l-76 45 -23 -57 c-30 -76 -133 -283
-176 -354 l-34 -58 -70 0 c-38 0 -69 3 -69 6 0 3 19 37 42 77 50 86 124 243
167 356 39 102 45 94 -111 145 -571 186 -1232 120 -2123 -212 l-131 -48 1 37
c0 21 3 41 7 44 4 4 -1 15 -10 24 -10 9 -13 13 -8 8 6 -4 17 -7 26 -6 9 0 11
2 3 6 -14 5 32 53 52 53 6 0 36 12 65 26 119 57 390 150 595 204 592 155 1153
146 1584 -26 62 -25 117 -42 121 -37 11 10 56 216 69 313 41 298 -5 678 -119
990 -236 642 -795 1003 -1610 1039 l-155 7 85 11 c112 14 420 8 542 -11z
m-1249 -331 c-3 -8 -10 -15 -15 -15 -7 0 -6 5 1 13 6 8 7 18 3 22 -4 5 -2 5 5
1 7 -4 10 -13 6 -21z m865 -1007 c-39 -51 -167 -132 -256 -161 -44 -15 -119
-33 -167 -42 -111 -19 -385 -21 -404 -2 -11 10 -12 9 -6 -1 6 -12 3 -12 -16
-1 -16 8 -20 14 -10 17 8 3 9 7 3 11 -7 4 -5 14 7 29 17 23 17 23 136 11 150
-15 334 -6 440 21 94 23 230 88 264 124 34 36 38 32 9 -6z m-3224 -1854 c9 -3
155 -204 324 -446 l307 -440 5 436 c4 374 7 438 20 446 8 5 61 10 117 10 80 0
105 -3 117 -16 15 -14 16 -83 14 -670 -3 -569 -5 -656 -18 -664 -8 -5 -63 -10
-121 -10 -87 0 -111 3 -128 18 -11 9 -149 204 -305 432 -156 228 -297 433
-313 455 l-28 40 -3 -460 c-2 -418 -4 -461 -19 -473 -26 -19 -207 -16 -227 4
-14 14 -16 87 -16 660 0 426 4 652 10 665 10 17 22 19 130 19 65 0 126 -3 134
-6z m2144 -6 c13 -13 17 -192 6 -222 -5 -14 -45 -16 -345 -16 l-339 0 0 -140
0 -140 264 0 c231 0 265 -2 270 -16 3 -9 6 -58 6 -109 0 -72 -4 -97 -16 -109
-13 -14 -52 -16 -270 -16 l-254 0 0 -160 0 -160 343 0 c253 0 346 -3 355 -12
8 -8 12 -49 12 -120 0 -96 -2 -108 -19 -118 -27 -14 -915 -14 -942 0 -18 10
-19 28 -19 668 0 499 3 661 12 670 17 17 919 17 936 0z m3486 -4 c12 -12 16
-37 16 -109 0 -72 -4 -97 -16 -109 -13 -13 -45 -16 -195 -16 l-179 0 0 -535
c0 -635 14 -575 -136 -575 -52 0 -104 5 -115 10 -18 10 -19 27 -19 555 l0 545
-183 0 c-129 0 -187 4 -195 12 -8 8 -12 48 -12 113 0 65 4 105 12 113 9 9 136
12 509 12 439 0 499 -2 513 -16z m-2390 -16 c35 -50 8 -108 -49 -108 -57 0
-89 60 -54 103 27 35 81 37 103 5z m1184 6 c12 -4 22 -13 22 -21 0 -8 -29 -56
-63 -107 -35 -50 -119 -173 -187 -273 -68 -101 -126 -183 -129 -183 -3 0 -39
48 -80 107 l-73 106 118 174 c125 184 128 188 159 196 29 7 206 8 233 1z
m-995 -185 c30 -16 37 -28 37 -68 0 -47 -24 -71 -72 -71 -73 0 -105 74 -53
125 26 27 54 31 88 14z m-392 -20 c28 -28 22 -76 -12 -101 -35 -27 -73 -16
-93 27 -19 39 -20 49 -4 39 7 -5 8 -3 4 5 -12 19 24 51 56 51 15 0 37 -9 49
-21z m203 -190 c37 -29 37 -89 0 -118 -15 -12 -35 -21 -45 -21 -81 0 -113 98
-47 144 30 22 60 20 92 -5z m416 1 c22 -22 27 -78 10 -110 -5 -10 -24 -23 -41
-29 -44 -15 -100 12 -110 52 -9 33 4 76 28 95 26 19 90 15 113 -8z m197 -185
c60 -42 46 -142 -22 -165 -97 -32 -168 78 -96 151 33 33 82 39 118 14z m-400
-17 c54 -51 14 -148 -62 -148 -74 0 -111 84 -64 144 27 34 91 37 126 4z m-407
-10 c43 -47 6 -128 -59 -128 -29 0 -61 22 -61 41 0 18 -2 24 -12 37 -7 8 -7
12 1 12 7 0 9 5 6 11 -4 5 1 19 11 30 24 27 87 26 114 -3z m1213 -372 c103
-151 187 -282 187 -290 0 -14 -20 -16 -138 -16 -120 0 -141 2 -154 18 -8 9
-65 92 -127 183 l-113 167 74 106 c40 58 76 106 79 106 3 0 90 -124 192 -274z
m-620 203 c54 -25 67 -110 22 -154 -48 -49 -145 -22 -160 44 -8 38 18 99 47
111 32 12 63 12 91 -1z m-388 -24 c35 -34 34 -93 0 -125 -57 -53 -146 -14
-148 65 -2 75 94 114 148 60z m204 -191 c26 -21 31 -33 31 -69 0 -80 -70 -126
-138 -91 -61 32 -72 108 -23 157 39 38 87 39 130 3z m-429 -34 c11 -11 20 -29
20 -40 0 -22 -33 -60 -53 -60 -30 0 -57 31 -57 65 0 53 52 73 90 35z m198
-196 c29 -20 31 -79 3 -94 -34 -17 -69 -12 -86 14 -38 58 26 120 83 80z
m-1861 -686 l108 -121 3 116 3 117 29 0 30 0 0 -179 c0 -99 -4 -182 -9 -185
-5 -4 -58 49 -118 115 l-108 122 -3 -116 -3 -117 -29 0 -30 0 0 185 c0 107 4
185 9 185 5 0 58 -55 118 -122z m1268 100 c11 -6 33 -22 48 -36 l28 -26 -23
-18 c-22 -16 -24 -16 -49 8 -32 31 -96 42 -139 24 -94 -39 -100 -188 -9 -236
51 -26 123 -12 158 30 12 14 15 14 37 -1 l25 -16 -23 -24 c-36 -39 -79 -56
-138 -56 -63 0 -106 19 -143 62 -88 105 -36 270 94 301 38 9 103 3 134 -12z
m710 -12 c116 -62 114 -250 -4 -315 -131 -72 -281 13 -281 159 0 149 147 230
285 156z m1236 -89 l104 -119 3 116 3 116 29 0 30 0 0 -185 c0 -102 -4 -185
-9 -185 -5 0 -55 54 -112 119 -57 66 -107 120 -111 120 -5 1 -8 -51 -8 -114
l0 -115 -30 0 -30 0 0 178 c0 166 3 197 20 190 4 -2 54 -56 111 -121z m-3971
11 c0 -119 12 -171 43 -193 33 -23 84 -19 112 10 24 23 25 29 25 155 l0 130
30 0 30 0 0 -130 c0 -93 -4 -139 -14 -158 -47 -90 -173 -105 -243 -28 l-33 36
0 140 0 140 25 0 25 0 0 -102z m1380 -78 l0 -180 -30 0 -30 0 0 180 0 180 30
0 30 0 0 -180z m2041 142 c41 -46 40 -99 -2 -147 l-31 -35 26 -35 c14 -19 38
-51 52 -70 l26 -35 -35 0 c-32 0 -40 6 -87 71 -48 63 -56 70 -84 67 l-31 -3
-3 -67 c-3 -65 -4 -68 -27 -68 l-25 0 0 181 0 181 96 -4 c94 -3 96 -4 125 -36z"/>
<path d="M5002 1796 c-35 -33 -37 -38 -37 -95 0 -55 3 -64 32 -92 24 -25 42
-33 82 -37 49 -4 53 -3 91 36 36 36 40 44 40 92 0 47 -4 56 -39 91 -34 34 -44
39 -85 39 -39 0 -52 -6 -84 -34z"/>
<path d="M5704 1816 c-3 -7 -4 -33 -2 -57 l3 -44 47 -3 c37 -2 51 1 67 17 46
46 10 101 -64 101 -30 0 -47 -5 -51 -14z"/>
</g>
</svg>
